<?xml version="1.0" standalone="no"?>
<!DOCTYPE svg PUBLIC "-//W3C//DTD SVG 20010904//EN"
 "http://www.w3.org/TR/2001/REC-SVG-20010904/DTD/svg10.dtd">
<svg version="1.0" xmlns="http://www.w3.org/2000/svg"
 width="171.000000pt" height="150.000000pt" viewBox="0 0 171.000000 150.000000"
 preserveAspectRatio="xMidYMid meet">
<metadata>
Created by potrace 1.16, written by Peter Selinger 2001-2019
</metadata>
<g transform="translate(0.000000,150.000000) scale(0.100000,-0.100000)"
fill="#463f3c" stroke="none">
<path d="M705 1450 c-282 -62 -493 -269 -565 -555 -55 -219 13 -470 173 -641
120 -128 222 -187 406 -231 120 -28 174 -27 306 7 262 66 453 246 537 505 19
59 23 91 22 205 -1 154 -20 233 -89 357 -51 90 -178 218 -270 269 -124 69
-192 86 -345 90 -74 2 -153 -1 -175 -6z m370 -54 c243 -82 423 -287 471 -534
65 -341 -145 -682 -486 -790 -73 -22 -102 -26 -205 -26 -134 0 -193 14 -309
70 -205 101 -344 292 -381 524 -17 102 -17 108 3 212 45 232 182 412 389 510
115 54 185 68 323 64 92 -3 131 -9 195 -30z"/>
<path d="M1134 1098 c-55 -26 -62 -108 -14 -150 39 -36 79 -36 119 -2 25 20
31 34 31 64 0 52 -8 68 -41 85 -32 17 -65 18 -95 3z"/>
<path d="M1001 883 c-15 -16 -53 -72 -85 -125 -32 -53 -64 -99 -71 -102 -7 -2
-37 2 -67 10 -106 28 -119 23 -278 -124 -61 -56 -64 -61 -55 -88 18 -50 45
-43 132 34 107 94 125 105 154 93 55 -21 228 -54 253 -47 42 10 186 227 186
281 0 83 -110 127 -169 68z"/>
</g>
</svg>
