<?xml version="1.0" standalone="no"?>
<!DOCTYPE svg PUBLIC "-//W3C//DTD SVG 20010904//EN"
 "http://www.w3.org/TR/2001/REC-SVG-20010904/DTD/svg10.dtd">
<svg version="1.0" xmlns="http://www.w3.org/2000/svg"
 width="157.000000pt" height="150.000000pt" viewBox="0 0 157.000000 150.000000"
 preserveAspectRatio="xMidYMid meet">
<metadata>
Created by potrace 1.16, written by Peter Selinger 2001-2019
</metadata>
<g transform="translate(0.000000,150.000000) scale(0.100000,-0.100000)"
fill="#463f3c" stroke="none">
<path d="M600 1449 c-323 -84 -540 -367 -540 -703 0 -185 63 -350 181 -480
125 -136 251 -203 458 -242 92 -18 94 -18 205 4 166 34 295 100 401 207 143
143 204 282 212 480 5 100 2 134 -15 202 -67 264 -267 467 -528 533 -104 27
-270 26 -374 -1z m322 -20 c437 -88 683 -546 513 -953 -52 -123 -178 -263
-299 -331 -119 -66 -204 -89 -341 -89 -139 -1 -194 12 -324 76 -182 89 -327
277 -370 476 -17 82 -14 219 8 304 64 249 277 458 522 512 78 17 220 20 291 5z"/>
<path d="M779 1086 c-127 -75 -178 -140 -165 -210 4 -19 28 -63 54 -97 101
-133 121 -166 138 -227 16 -58 16 -67 1 -120 -8 -31 -14 -59 -11 -61 10 -10
106 97 129 143 42 84 32 120 -68 240 -37 44 -73 94 -82 112 -31 66 -12 142 56
219 18 20 30 38 27 40 -2 3 -38 -15 -79 -39z"/>
<path d="M888 1063 c-27 -31 -48 -81 -48 -113 0 -45 21 -84 91 -170 78 -96
102 -150 96 -213 -3 -40 -2 -45 10 -35 22 18 53 84 53 113 0 44 -25 88 -89
161 -92 102 -117 159 -100 231 9 45 7 49 -13 26z"/>
<path d="M515 927 c-46 -79 -33 -126 69 -261 77 -100 116 -169 116 -202 0 -13
5 -24 10 -24 15 0 12 115 -3 153 -8 18 -42 67 -76 109 -87 108 -108 171 -81
242 16 42 -7 30 -35 -17z"/>
</g>
</svg>
