<?xml version="1.0" standalone="no"?>
<!DOCTYPE svg PUBLIC "-//W3C//DTD SVG 20010904//EN"
 "http://www.w3.org/TR/2001/REC-SVG-20010904/DTD/svg10.dtd">
<svg version="1.0" xmlns="http://www.w3.org/2000/svg"
 width="163.000000pt" height="158.000000pt" viewBox="0 0 163.000000 158.000000"
 preserveAspectRatio="xMidYMid meet">
<metadata>
Created by potrace 1.16, written by Peter Selinger 2001-2019
</metadata>
<g transform="translate(0.000000,158.000000) scale(0.100000,-0.100000)"
fill="#463f3c" stroke="none">
<path d="M611 1490 c-411 -111 -644 -534 -512 -930 41 -122 92 -203 185 -295
65 -65 99 -90 176 -128 178 -87 331 -106 503 -63 272 69 470 263 544 530 23
85 23 279 -1 366 -65 239 -247 430 -481 507 -112 36 -305 43 -414 13z m333
-25 c38 -8 112 -35 164 -61 169 -82 299 -234 360 -422 32 -99 36 -272 8 -371
-34 -124 -119 -261 -214 -345 -386 -341 -979 -173 -1139 322 -51 156 -31 360
50 514 93 176 280 321 468 362 85 19 218 19 303 1z"/>
<path d="M769 1166 c-1 -3 -3 -10 -4 -16 -1 -5 -3 -73 -4 -150 0 -77 -4 -140
-8 -140 -5 0 -45 31 -90 70 -74 63 -83 68 -97 54 -9 -8 -16 -19 -16 -24 0 -4
43 -43 95 -86 52 -43 95 -84 95 -91 0 -6 -43 -47 -95 -89 -53 -43 -94 -82 -92
-88 2 -5 10 -14 19 -19 12 -8 32 3 91 51 41 34 80 62 86 62 7 0 11 -49 11
-150 0 -82 3 -150 7 -150 10 0 273 200 273 208 0 4 -43 43 -95 86 -52 43 -95
84 -95 90 0 6 8 16 18 22 34 22 167 137 167 145 0 5 -56 54 -124 109 -137 111
-140 114 -142 106z"/>
</g>
</svg>
